<?xml version="1.0" standalone="no"?>
<!DOCTYPE svg PUBLIC "-//W3C//DTD SVG 20010904//EN"
 "http://www.w3.org/TR/2001/REC-SVG-20010904/DTD/svg10.dtd">
<svg version="1.0" xmlns="http://www.w3.org/2000/svg"
 width="128.000000pt" height="128.000000pt" viewBox="0 0 128.000000 128.000000"
 preserveAspectRatio="xMidYMid meet">

<g transform="translate(0.000000,128.000000) scale(0.100000,-0.100000)"
fill="#271f49" stroke="none">
<path d="M355 1050 l-190 -190 -58 0 c-48 0 -62 -4 -82 -25 -22 -21 -25 -33
-25 -100 l0 -75 640 0 640 0 0 75 c0 67 -3 79 -25 100 -20 21 -34 25 -82 25
l-58 0 -190 190 c-154 154 -195 190 -217 190 -26 0 -48 -23 -48 -51 0 -6 71
-83 157 -170 l157 -159 -334 0 -334 0 157 159 c86 87 157 164 157 170 0 28
-22 51 -48 51 -22 0 -63 -36 -217 -190z"/>
<path d="M74 553 c3 -10 24 -117 47 -238 38 -198 45 -223 70 -247 l27 -28 417
0 c454 0 450 0 474 58 6 15 29 115 50 222 22 107 42 207 46 223 l7 27 -572 0
c-539 0 -571 -1 -566 -17z m666 -227 l-140 -141 -72 72 c-69 69 -72 74 -55 90
16 16 20 14 72 -37 l55 -55 122 122 c116 116 123 121 141 106 17 -16 12 -23
-123 -157z"/>
</g>
</svg>
