<?xml version="1.0" standalone="no"?>
<!DOCTYPE svg PUBLIC "-//W3C//DTD SVG 20010904//EN"
 "http://www.w3.org/TR/2001/REC-SVG-20010904/DTD/svg10.dtd">
<svg version="1.0" xmlns="http://www.w3.org/2000/svg"
 width="128.000000pt" height="128.000000pt" viewBox="0 0 128.000000 128.000000"
 preserveAspectRatio="xMidYMid meet">

<g transform="translate(0.000000,128.000000) scale(0.100000,-0.100000)"
fill="#FFF" stroke="none">
<path d="M721 1244 c-21 -15 -48 -24 -70 -24 -89 0 -174 -54 -187 -118 -3 -16
-24 -47 -47 -68 -44 -42 -76 -104 -77 -146 0 -18 -9 -33 -26 -44 -37 -25 -64
-85 -64 -144 l0 -50 385 0 385 0 0 50 c0 65 -20 112 -59 141 -25 19 -31 30
-31 61 0 53 -32 112 -78 143 -37 25 -37 26 -37 93 -1 69 -24 133 -48 131 -6 0
-27 -12 -46 -25z"/>
<path d="M160 480 l0 -100 480 0 480 0 0 100 0 100 -480 0 -480 0 0 -100z"/>
<path d="M266 278 c3 -13 12 -38 20 -55 l13 -33 90 0 91 0 0 55 0 55 -111 0
c-110 0 -110 0 -103 -22z"/>
<path d="M560 245 l0 -55 80 0 80 0 0 55 0 55 -80 0 -80 0 0 -55z"/>
<path d="M800 245 l0 -55 93 0 94 0 12 41 c7 23 15 47 18 55 4 11 -15 14 -106
14 l-111 0 0 -55z"/>
<path d="M330 107 c0 -7 7 -34 16 -60 l16 -47 59 0 59 0 0 60 0 60 -75 0 c-56
0 -75 -3 -75 -13z"/>
<path d="M560 60 l0 -60 80 0 80 0 0 60 0 60 -80 0 -80 0 0 -60z"/>
<path d="M800 60 l0 -61 62 3 61 3 18 52 c9 28 15 54 11 57 -3 3 -38 6 -79 6
l-73 0 0 -60z"/>
</g>
</svg>
