<?xml version="1.0" standalone="no"?>
<!DOCTYPE svg PUBLIC "-//W3C//DTD SVG 20010904//EN"
 "http://www.w3.org/TR/2001/REC-SVG-20010904/DTD/svg10.dtd">
<svg version="1.0" xmlns="http://www.w3.org/2000/svg"
 width="128.000000pt" height="128.000000pt" viewBox="0 0 128.000000 128.000000"
 preserveAspectRatio="xMidYMid meet">

<g transform="translate(0.000000,128.000000) scale(0.100000,-0.100000)"
fill="#FFF" stroke="none">
<path d="M565 1271 c-81 -21 -169 -91 -206 -163 -18 -35 -41 -146 -33 -160 3
-4 -12 -14 -31 -24 -120 -57 -124 -233 -6 -294 69 -35 165 -18 206 36 8 11 16
11 50 -1 51 -18 139 -18 190 0 34 12 42 12 50 1 41 -54 137 -71 206 -36 117
60 114 237 -4 293 -29 14 -34 22 -35 54 -5 120 -66 214 -174 269 -54 27 -158
40 -213 25z"/>
<path d="M478 613 c-21 -14 -38 -29 -38 -33 0 -13 191 -555 198 -562 4 -4 52
122 106 279 l99 285 -24 19 -24 18 -6 -35 c-3 -19 -9 -37 -12 -40 -12 -12 -37
6 -37 25 0 14 -5 19 -15 15 -11 -5 -15 -29 -17 -107 -3 -88 -5 -102 -20 -105
-16 -3 -18 7 -18 98 0 99 -1 103 -27 124 -22 17 -102 47 -123 45 -3 0 -22 -12
-42 -26z"/>
</g>
</svg>
