<?xml version="1.0" standalone="no"?>
<!DOCTYPE svg PUBLIC "-//W3C//DTD SVG 20010904//EN"
 "http://www.w3.org/TR/2001/REC-SVG-20010904/DTD/svg10.dtd">
<svg version="1.0" xmlns="http://www.w3.org/2000/svg"
 width="128.000000pt" height="128.000000pt" viewBox="0 0 128.000000 128.000000"
 preserveAspectRatio="xMidYMid meet">

<g transform="translate(0.000000,128.000000) scale(0.100000,-0.100000)"
fill="#FFF" stroke="none">
<path d="M606 1265 c-43 -15 -100 -65 -122 -107 -19 -37 -18 -38 16 -38 38 0
121 -31 156 -59 l27 -21 22 20 c28 26 116 60 155 60 17 0 30 4 30 8 0 4 -13
29 -29 54 -52 82 -160 117 -255 83z"/>
<path d="M83 1143 l-32 -16 80 -158 79 -159 245 0 c243 0 245 0 245 21 0 97
-84 193 -188 212 -86 17 -195 -43 -232 -127 l-18 -39 -71 141 c-39 78 -72 142
-74 141 -1 0 -16 -7 -34 -16z"/>
<path d="M836 1039 c-34 -8 -106 -45 -106 -54 0 -1 9 -22 20 -46 11 -24 20
-56 20 -71 0 -59 -2 -58 177 -58 l164 0 -7 38 c-24 137 -141 220 -268 191z"/>
<path d="M130 680 l0 -50 550 0 550 0 0 50 0 50 -550 0 -550 0 0 -50z"/>
<path d="M134 513 c8 -63 49 -146 88 -178 72 -61 102 -70 258 -75 l145 -5 3
-87 3 -87 -138 -3 -138 -3 -3 -38 -3 -37 355 0 356 0 0 40 0 40 -130 0 -130 0
0 89 0 89 113 4 c94 2 119 7 157 26 90 47 149 130 158 224 l5 48 -553 0 -553
0 7 -47z"/>
</g>
</svg>
